PathFileType	4	(x/y/z)	S10_BK_Cal_T01
DataRate	CameraRate	NumFrames	NumMarkers	Units	OrigDataRate	OrigDataStartFrame	OrigNumFrames
240	240	5	51	mm	240	901	2400
Frame#	Time	Sternum			R.Acromium			L.Acromium			Top.Head			R.ASIS			L.ASIS			R.PSIS			L.PSIS			R.Great.Tro			L.Great.Tro			R.Iliac.Crest			L.Iliac.Crest			V.Sacral			R.Thigh.Upper.Post			R.Thigh.Lower.Ant			R.Thigh.Lower.Post			R.Thigh.Upper.Ant			R.Knee.Lat			R.Knee.Med			R.Shank.Upper.Post			R.Shank.Lower.Ant			R.Shank.Lower.Post			R.Shank.Upper.Ant			R.Ankle.Lat			R.Ankle.Med			R.Heel.Upper			R.Heel.Med			R.Heel.Lat			R.Toe.Lat			R.Toe.Med			R.Toe.Tip			L.Thigh.Upper.Post			L.Thigh.Lower.Ant			L.Thigh.Lower.Post			L.Thigh.Upper.Ant			L.Knee.Lat			L.Knee.Med			L.Shank.Upper.Post			L.Shank.Lower.Ant			L.Shank.Lower.Post			L.Shank.Upper.Ant			L.Ankle.Lat			L.Ankle.Med			L.Heel.Upper			L.Heel.Med			L.Heel.Lat			L.Toe.Lat			L.Toe.Med			L.Toe.Tip			Cervical.Spine			Back			
		X1	Y1	Z1	X2	Y2	Z2	X3	Y3	Z3	X4	Y4	Z4	X5	Y5	Z5	X6	Y6	Z6	X7	Y7	Z7	X8	Y8	Z8	X9	Y9	Z9	X10	Y10	Z10	X11	Y11	Z11	X12	Y12	Z12	X13	Y13	Z13	X14	Y14	Z14	X15	Y15	Z15	X16	Y16	Z16	X17	Y17	Z17	X18	Y18	Z18	X19	Y19	Z19	X20	Y20	Z20	X21	Y21	Z21	X22	Y22	Z22	X23	Y23	Z23	X24	Y24	Z24	X25	Y25	Z25	X26	Y26	Z26	X27	Y27	Z27	X28	Y28	Z28	X29	Y29	Z29	X30	Y30	Z30	X31	Y31	Z31	X32	Y32	Z32	X33	Y33	Z33	X34	Y34	Z34	X35	Y35	Z35	X36	Y36	Z36	X37	Y37	Z37	X38	Y38	Z38	X39	Y39	Z39	X40	Y40	Z40	X41	Y41	Z41	X42	Y42	Z42	X43	Y43	Z43	X44	Y44	Z44	X45	Y45	Z45	X46	Y46	Z46	X47	Y47	Z47	X48	Y48	Z48	X49	Y49	Z49	X50	Y50	Z50	X51	Y51	Z51	

901	3.75	862.98	1246.1	306.13	736.85	1407.1	457.08	742.95	1434.4	149.79	736.84	1732.6	325.79	772.08	959.89	416.26	773.46	973.01	184.93	578.65	1027.4	332.59	587.94	1030.7	250.23	691.02	905.24	494.1	699.39	922.25	124.31	700.34	1061.7	459.46	726.31	1063.6	158.67	552.21	1002.4	294.36	744.57	710.7	524.26	821.31	646.96	499.06	763.48	622.54	528.59	803.02	736.26	489.04	796.36	496.59	506.97	798.46	487.31	380.57	677.81	298.11	522.75	724.45	219	517.4	658.6	226.19	525.16	749.84	291.94	516.93	645.48	112.46	513.72	669	110.34	436.03	582.17	64.015	466.9	595.23	36.641	440.86	582.88	39.818	501.53	748.78	38.77	567.46	789.66	44.305	462.72	842.97	61.031	512.14	716.59	654.97	106.55	811.28	598.25	107.47	747.45	564.86	116.65	787.9	686.11	96.259	802.82	494.47	109.51	831.56	482.15	235.37	694.3	312.84	92.079	732.54	208.64	92.156	675.21	237.66	92.557	751.98	283.29	89.695	666.47	107.48	90.288	685.68	106.23	177.28	592.36	78.305	132.63	604.91	46.508	164.74	596.93	48.615	100.57	770.52	41.125	51.953	804.71	46.598	156.36	856.97	57.256	107.52	665.49	1470.8	312.7	583.02	1265.2	297.77
902	3.7542	862.99	1246.1	306.14	736.89	1407.1	457.11	742.94	1434.4	149.81	736.85	1732.6	325.84	772.07	959.93	416.3	773.46	973.01	184.95	578.66	1027.4	332.62	587.95	1030.7	250.26	691.05	905.24	494.13	699.38	922.25	124.34	700.36	1061.7	459.49	726.31	1063.6	158.69	552.22	1002.4	294.41	744.59	710.7	524.29	821.33	646.96	499.08	763.5	622.54	528.61	803.04	736.26	489.06	796.37	496.58	506.98	798.47	487.31	380.59	677.83	298.11	522.77	724.47	218.99	517.41	658.62	226.18	525.18	749.86	291.93	516.94	645.48	112.46	513.72	669.01	110.34	436.03	582.17	64.017	466.9	595.23	36.644	440.85	582.88	39.821	501.53	748.79	38.769	567.46	789.67	44.301	462.73	842.97	61.025	512.15	716.6	654.97	106.57	811.29	598.25	107.49	747.46	564.86	116.67	787.91	686.11	96.28	802.83	494.47	109.52	831.57	482.14	235.38	694.3	312.85	92.089	732.54	208.64	92.161	675.21	237.67	92.566	751.98	283.29	89.703	666.47	107.48	90.293	685.68	106.23	177.28	592.36	78.306	132.63	604.91	46.507	164.75	596.93	48.617	100.57	770.52	41.127	51.953	804.72	46.599	156.36	856.97	57.256	107.52	665.51	1470.8	312.74	583.03	1265.2	297.8
903	3.7583	863.01	1246	306.16	736.92	1407.1	457.13	742.94	1434.4	149.84	736.87	1732.6	325.89	772.06	959.96	416.33	773.46	973	184.97	578.67	1027.4	332.66	587.96	1030.7	250.29	691.08	905.24	494.16	699.38	922.24	124.37	700.39	1061.7	459.52	726.3	1063.6	158.71	552.23	1002.4	294.45	744.61	710.7	524.32	821.35	646.96	499.1	763.52	622.54	528.64	803.06	736.26	489.08	796.39	496.57	507	798.49	487.32	380.6	677.85	298.11	522.78	724.49	218.98	517.41	658.63	226.18	525.19	749.89	291.92	516.95	645.49	112.46	513.72	669.01	110.35	436.03	582.17	64.02	466.9	595.23	36.646	440.85	582.88	39.825	501.53	748.79	38.767	567.46	789.67	44.296	462.73	842.97	61.019	512.15	716.6	654.97	106.6	811.29	598.25	107.51	747.46	564.87	116.69	787.91	686.11	96.3	802.83	494.47	109.54	831.58	482.14	235.4	694.3	312.85	92.099	732.54	208.65	92.167	675.21	237.67	92.575	751.98	283.29	89.711	666.47	107.49	90.296	685.68	106.23	177.29	592.36	78.306	132.63	604.91	46.507	164.75	596.93	48.619	100.57	770.52	41.129	51.952	804.72	46.6	156.36	856.97	57.256	107.51	665.53	1470.8	312.79	583.04	1265.2	297.84
904	3.7625	863.02	1246	306.17	736.95	1407.1	457.16	742.94	1434.4	149.87	736.88	1732.6	325.94	772.06	959.99	416.37	773.47	972.99	184.99	578.68	1027.4	332.7	587.97	1030.6	250.32	691.11	905.24	494.19	699.38	922.24	124.4	700.41	1061.7	459.55	726.29	1063.5	158.73	552.24	1002.4	294.5	744.63	710.7	524.34	821.37	646.96	499.12	763.55	622.54	528.67	803.08	736.26	489.11	796.4	496.56	507.01	798.5	487.32	380.62	677.87	298.11	522.8	724.5	218.97	517.42	658.65	226.18	525.21	749.91	291.91	516.96	645.5	112.46	513.72	669.02	110.35	436.03	582.18	64.023	466.9	595.23	36.647	440.85	582.89	39.828	501.53	748.79	38.766	567.46	789.67	44.291	462.73	842.98	61.013	512.15	716.61	654.97	106.62	811.29	598.25	107.53	747.47	564.87	116.71	787.91	686.11	96.32	802.83	494.47	109.55	831.59	482.13	235.41	694.3	312.85	92.109	732.54	208.65	92.172	675.21	237.67	92.583	751.98	283.3	89.718	666.47	107.49	90.3	685.68	106.23	177.29	592.36	78.307	132.63	604.91	46.506	164.75	596.93	48.62	100.57	770.52	41.132	51.952	804.72	46.601	156.37	856.97	57.256	107.51	665.55	1470.8	312.85	583.05	1265.2	297.87
905	3.7667	863.03	1246	306.19	736.98	1407	457.19	742.94	1434.4	149.9	736.89	1732.6	325.99	772.06	960.01	416.4	773.47	972.98	185.02	578.69	1027.4	332.74	587.98	1030.6	250.36	691.14	905.24	494.22	699.38	922.23	124.43	700.43	1061.7	459.58	726.28	1063.5	158.75	552.25	1002.4	294.54	744.65	710.7	524.37	821.39	646.95	499.14	763.57	622.55	528.69	803.1	736.26	489.13	796.42	496.56	507.03	798.51	487.32	380.63	677.89	298.11	522.82	724.52	218.97	517.42	658.67	226.17	525.22	749.93	291.91	516.96	645.5	112.46	513.72	669.02	110.35	436.04	582.18	64.026	466.9	595.23	36.649	440.85	582.89	39.831	501.53	748.79	38.765	567.46	789.67	44.286	462.73	842.98	61.008	512.15	716.61	654.96	106.65	811.3	598.25	107.54	747.47	564.87	116.74	787.91	686.11	96.341	802.83	494.47	109.57	831.6	482.13	235.42	694.3	312.86	92.118	732.54	208.65	92.178	675.21	237.67	92.592	751.98	283.3	89.725	666.47	107.49	90.304	685.68	106.23	177.29	592.36	78.308	132.63	604.91	46.506	164.75	596.93	48.62	100.57	770.52	41.135	51.951	804.72	46.602	156.37	856.97	57.256	107.51	665.58	1470.8	312.9	583.06	1265.2	297.91
